<?xml version="1.0" encoding="UTF-8"?>
<svg version="1.1" xmlns="http://www.w3.org/2000/svg" width="1216" height="824">
<path d="M0 0 C401.28 0 802.56 0 1216 0 C1216 271.92 1216 543.84 1216 824 C814.72 824 413.44 824 0 824 C0 552.08 0 280.16 0 0 Z " fill="#FCFCFC" transform="translate(0,0)"/>
<path d="M0 0 C1.93787851 1.38750943 3.8509764 2.80976915 5.75 4.25 C8.00384393 5.69350916 10.2867937 7.0828572 12.57397461 8.47290039 C15.29643711 10.12875778 18.00043757 11.81207886 20.703125 13.5 C27.2498215 17.57272979 33.84207506 21.56944098 40.4375 25.5625 C50.7482303 31.80793912 61.02878328 38.0997664 71.28930664 44.42749023 C78.46874921 48.85291819 85.66607362 53.24778829 92.875 57.625 C99.64536765 61.73842066 106.40324072 65.870023 113.125 70.0625 C113.79160645 70.47741699 114.45821289 70.89233398 115.14501953 71.31982422 C119.62602574 74.12602574 119.62602574 74.12602574 120.75 75.25 C120.8427833 76.63160115 120.86747043 78.01788038 120.86352539 79.40258789 C120.86344986 80.28342545 120.86337433 81.164263 120.86329651 82.0717926 C120.85813522 83.02907761 120.85297394 83.98636261 120.84765625 84.97265625 C120.84553383 86.43547279 120.84553383 86.43547279 120.84336853 87.92784119 C120.83775133 91.05609143 120.82519593 94.18427123 120.8125 97.3125 C120.80748722 99.42773334 120.80292393 101.54296781 120.79882812 103.65820312 C120.78777631 108.85549296 120.77102146 114.05274145 120.75 119.25 C121.48089844 119.52674561 122.21179688 119.80349121 122.96484375 120.08862305 C125.56968467 121.17481066 127.88753411 122.39515689 130.3125 123.83203125 C131.18076416 124.34507812 132.04902832 124.858125 132.94360352 125.38671875 C133.86971436 125.93972656 134.7958252 126.49273437 135.75 127.0625 C136.72187256 127.64 137.69374512 128.2175 138.69506836 128.8125 C147.88193721 134.29090122 156.97757396 139.91214693 166.05322266 145.57226562 C168.9308983 147.36254147 171.81433211 149.14324422 174.69921875 150.921875 C175.66980225 151.52064453 176.64038574 152.11941406 177.64038086 152.73632812 C179.51437522 153.89211531 181.38886912 155.04709302 183.26391602 156.20117188 C184.51773071 156.97557617 184.51773071 156.97557617 185.796875 157.765625 C186.90820801 158.45060059 186.90820801 158.45060059 188.04199219 159.14941406 C189.75 160.25 189.75 160.25 190.75 161.25 C190.84535213 162.61608326 190.8718867 163.98705455 190.87025452 165.35646057 C190.87231651 166.68375183 190.87231651 166.68375183 190.87442017 168.03785706 C190.87082489 169.01608932 190.86722961 169.99432159 190.86352539 171.00219727 C190.86367142 172.0264682 190.86381744 173.05073914 190.8639679 174.10604858 C190.86326828 177.50952229 190.85547363 180.91294204 190.84765625 184.31640625 C190.84579224 186.66910268 190.84436826 189.0217995 190.84336853 191.37449646 C190.83954199 197.58056705 190.82971055 203.7866144 190.81866455 209.99267578 C190.80845334 216.31998378 190.80387154 222.64729552 190.79882812 228.97460938 C190.7880884 241.39974982 190.77101036 253.82487298 190.75 266.25 C191.52171036 266.54822662 192.29342072 266.84645325 193.08851624 267.15371704 C196.00444625 268.35480811 198.42606402 269.85135963 201.05859375 271.5859375 C202.05310547 272.23820312 203.04761719 272.89046875 204.07226562 273.5625 C205.10029297 274.243125 206.12832031 274.92375 207.1875 275.625 C208.21166016 276.29789062 209.23582031 276.97078125 210.29101562 277.6640625 C213.1142932 279.52066445 215.93396142 281.3824391 218.75 283.25 C219.78190964 283.76166718 220.81381927 284.27333435 221.8769989 284.80050659 C225.16984139 287.60795278 225.16984139 287.60795278 225.4715271 291.26165771 C225.48890003 292.92147243 225.47300683 294.58183307 225.43115234 296.24121094 C225.4320285 297.14887711 225.43290466 298.05654327 225.43380737 298.99171448 C225.42962906 301.99014527 225.38296553 304.98633539 225.3359375 307.984375 C225.32474623 310.06372861 225.31620572 312.14309805 225.31021118 314.22247314 C225.28730759 319.69406859 225.22837034 325.16470762 225.1619873 330.63592529 C225.10059825 336.21939149 225.07320333 341.80301231 225.04296875 347.38671875 C224.97862888 358.34163356 224.87309038 369.2955876 224.75 380.25 C213.86 380.25 202.97 380.25 191.75 380.25 C191.8634375 376.70765625 191.976875 373.1653125 192.09375 369.515625 C192.14906892 366.05013963 192.17665831 362.5854503 192.20166016 359.11962891 C192.23360729 356.72746611 192.29398279 354.33549575 192.38427734 351.94482422 C193.31141884 338.95522489 193.31141884 338.95522489 189.24139404 327.03341675 C185.55125308 323.27979873 181.2985538 320.68295044 176.65490723 318.25933838 C174.30363478 317.01348793 172.22091997 315.51420097 170.1015625 313.91015625 C168.86096474 313.04199467 167.61881762 312.17604217 166.375 311.3125 C160.46390407 307.17363209 154.59195494 302.98590621 148.75 298.75 C141.86239222 293.7566539 134.93301896 288.82645436 127.96679688 283.94335938 C122.85099546 280.35099546 122.85099546 280.35099546 121.75 279.25 C121.42 312.58 121.09 345.91 120.75 380.25 C111.18 380.25 101.61 380.25 91.75 380.25 C91.80186966 376.64208023 91.85373932 373.03416046 91.90718079 369.31690979 C92.3700456 336.17954973 92.68780364 303.04331692 92.84871228 269.90306995 C92.86996077 265.55378219 92.89247481 261.20450185 92.91577148 256.85522461 C92.92038787 255.98941499 92.92500426 255.12360537 92.92976054 254.23155909 C93.00738479 240.23822043 93.18735606 226.24799475 93.40562568 212.25622381 C93.62754436 197.88335983 93.73838498 183.51268274 93.7475993 169.13809437 C93.75592025 161.06884684 93.81513446 153.00669282 94.00136757 144.93942451 C96.75751623 112.05949565 96.75751623 112.05949565 86.33621985 83.25361568 C80.19816801 77.98151828 73.2693332 75.54998938 65.53255272 73.46601677 C59.00562722 71.36773779 53.6489884 67.61320391 47.9375 63.875 C45.65638617 62.46207204 43.36212378 61.07281548 41.06640625 59.68359375 C40.41729279 59.28824432 39.76817932 58.8928949 39.09939575 58.48556519 C30.18978796 53.07727332 21.20805005 47.78833996 12.23120117 42.49267578 C11.57628189 42.10550888 10.92136261 41.71834198 10.24659729 41.31944275 C8.47326511 40.27116159 6.69883094 39.22474524 4.92431641 38.1784668 C1.81252101 36.28798288 -1.22046843 34.26968771 -4.25 32.25 C-4.58 146.76 -4.91 261.27 -5.25 379.25 C-20.76 379.25 -36.27 379.25 -52.25 379.25 C-52.25 310.94 -52.25 242.63 -52.25 172.25 C-58.19 174.56 -64.13 176.87 -70.25 179.25 C-74.23508913 180.7336429 -78.22005851 182.20711218 -82.21875 183.65234375 C-83.73825256 184.20348595 -83.73825256 184.20348595 -85.28845215 184.76576233 C-87.38478009 185.5253454 -89.48149892 186.2838506 -91.57861328 187.04125977 C-94.80255394 188.20649467 -98.02435217 189.37752859 -101.24609375 190.54882812 C-103.29935376 191.29201324 -105.35273451 192.03486487 -107.40625 192.77734375 C-108.36752808 193.12723862 -109.32880615 193.47713348 -110.31921387 193.83763123 C-111.2019397 194.15539017 -112.08466553 194.47314911 -112.99414062 194.80053711 C-113.77035767 195.08142685 -114.54657471 195.36231659 -115.34631348 195.65171814 C-117.25 196.25 -117.25 196.25 -119.25 196.25 C-119.25 256.97 -119.25 317.69 -119.25 380.25 C-131.79 380.25 -144.33 380.25 -157.25 380.25 C-157.25 311.61 -157.25 242.97 -157.25 172.25 C-140.45828343 165.14581222 -123.66211431 158.115514 -106.75 151.3125 C-104.68872195 150.4813185 -102.62752394 149.64993846 -100.56640625 148.81835938 C-90.96522017 144.94631198 -90.96522017 144.94631198 -86.78198242 143.26956177 C-85.00355136 142.55343503 -83.22790028 141.83038437 -81.4543457 141.1022644 C-80.10505981 140.55168869 -80.10505981 140.55168869 -78.72851562 139.98999023 C-77.51113708 139.4894236 -77.51113708 139.4894236 -76.26916504 138.97874451 C-74.25 138.25 -74.25 138.25 -72.25 138.25 C-72.25 101.29 -72.25 64.33 -72.25 26.25 C-63.25049192 21.75024596 -63.25049192 21.75024596 -59.75610352 20.34643555 C-58.97070694 20.02897873 -58.18531036 19.71152191 -57.37611389 19.38444519 C-56.55203537 19.05519547 -55.72795685 18.72594574 -54.87890625 18.38671875 C-53.99831039 18.03164749 -53.11771454 17.67657623 -52.21043396 17.31074524 C-49.4123691 16.1832033 -46.61252192 15.060172 -43.8125 13.9375 C-41.05466385 12.82849419 -38.29721542 11.71853729 -35.54019165 10.60751343 C-33.73161431 9.87991226 -31.92202827 9.15481313 -30.11141968 8.43228149 C-25.81069971 6.71149221 -21.53620979 4.9539894 -17.29736328 3.08544922 C-16.13780373 2.58196709 -16.13780373 2.58196709 -14.95481873 2.0683136 C-13.51649534 1.44066094 -12.0838663 0.79971997 -10.65858459 0.14299011 C-6.4570104 -1.67654909 -4.1333003 -2.08360772 0 0 Z " fill="#121212" transform="translate(573.25,39.75)"/>
<path d="M0 0 C7.71058193 4.60191422 14.14603253 11.21092481 16.56542969 20.07055664 C17.19535758 24.31690762 17.18270358 28.52086753 17.203125 32.80859375 C17.21009399 33.78726913 17.21706299 34.76594452 17.22424316 35.77427673 C17.24180615 38.99539401 17.24798384 42.21633655 17.25 45.4375 C17.25100708 46.53870178 17.25201416 47.63990356 17.25305176 48.7744751 C17.24287601 65.34028855 16.77395751 81.84100785 15.75 98.375 C15.66812439 99.81623734 15.66812439 99.81623734 15.58459473 101.28659058 C14.65759449 117.15848098 13.2444622 129.69906904 1 141 C-6.91935848 147.30316287 -14.9862826 149.12995255 -25 148 C-35.09809172 145.59280872 -45.01762231 138.72926811 -50.7890625 130.10546875 C-58.28955102 117.06429677 -57.17084385 102.04450352 -57.13037109 87.42138672 C-57.1250204 85.1337212 -57.1303519 82.84625332 -57.13671875 80.55859375 C-57.14564787 65.58135429 -56.39370015 50.82912574 -54.1875 36 C-54.03474609 34.86433594 -53.88199219 33.72867188 -53.72460938 32.55859375 C-52.03904547 21.05945026 -48.49594809 11.85961846 -39.12109375 4.53125 C-37.13090411 3.21249808 -35.12580775 2.08609451 -33 1 C-32.24976563 0.60683594 -31.49953125 0.21367187 -30.7265625 -0.19140625 C-20.98924917 -4.71342716 -9.75897135 -4.46172149 0 0 Z " fill="#131313" transform="translate(617,494)"/>
<path d="M0 0 C7.27039575 0.53518191 14.4642357 1.67126695 19.8125 7.01953125 C20.07128906 9.11987305 20.07128906 9.11987305 20.078125 11.71875 C20.08215332 12.67233398 20.08618164 13.62591797 20.09033203 14.60839844 C20.08114746 15.63094727 20.07196289 16.65349609 20.0625 17.70703125 C20.05718262 18.75922852 20.05186523 19.81142578 20.04638672 20.89550781 C19.96430094 27.66810403 19.40880965 34.18094889 18.38671875 40.87890625 C15.74584511 58.93907434 15.59768199 77.30558547 15.25 95.51953125 C15.23039215 96.54105286 15.2107843 97.56257446 15.19058228 98.61505127 C15.09565408 103.61083961 15.00372559 108.60668016 14.91259766 113.60253906 C14.78213626 120.70094505 14.64112059 127.79776979 14.4375 134.89453125 C14.40934204 136.44043945 14.40934204 136.44043945 14.38061523 138.01757812 C14.19014768 143.98657721 13.49617922 149.60004721 10.8125 155.01953125 C8.01877174 156.41639538 5.61570908 156.30278897 2.5 156.39453125 C1.36949219 156.44351563 0.23898437 156.4925 -0.92578125 156.54296875 C-5.23211267 155.85189281 -6.37764497 154.30390375 -9.1875 151.01953125 C-10.66967773 147.9519043 -10.66967773 147.9519043 -11.93359375 144.34375 C-12.17597275 143.66358322 -12.41835175 142.98341644 -12.66807556 142.28263855 C-13.52335088 139.8667563 -14.35539086 137.4434866 -15.1875 135.01953125 C-15.88097279 133.03051739 -16.57518858 131.04176247 -17.27001953 129.05322266 C-20.02052455 121.1564466 -22.73429211 113.24711278 -25.44946289 105.33813477 C-26.62194846 101.92528287 -27.7972346 98.51340408 -28.97265625 95.1015625 C-29.49630516 93.57134209 -29.49630516 93.57134209 -30.03053284 92.01020813 C-32.5799419 84.61222227 -35.33877801 77.30721939 -38.1875 70.01953125 C-38.19336624 70.96420761 -38.19923248 71.90888397 -38.20527649 72.88218689 C-38.26264577 81.81224696 -38.33548091 90.74206683 -38.42321491 99.67188168 C-38.46782271 104.26211202 -38.50709966 108.85225557 -38.53393555 113.44262695 C-38.56006462 117.87780669 -38.60053404 122.3126507 -38.65068626 126.74762154 C-38.66729031 128.4343299 -38.67884464 130.12109624 -38.68511391 131.80787468 C-38.75369204 148.57250957 -38.75369204 148.57250957 -42.1875 156.01953125 C-46.96000101 158.40578176 -53.71316762 157.35578249 -58.75 156.20703125 C-61.1875 155.01953125 -61.1875 155.01953125 -63.1875 152.01953125 C-63.37259466 149.46485286 -63.44329823 147.02240387 -63.41796875 144.46875 C-63.41787308 143.71188904 -63.4177774 142.95502808 -63.41767883 142.17523193 C-63.41393074 139.68567569 -63.39489142 137.19650701 -63.375 134.70703125 C-63.3681284 132.96297339 -63.36162171 131.21891406 -63.35546875 129.47485352 C-63.30509807 119.45959924 -63.0863316 109.4646583 -62.6875 99.45703125 C-62.17237494 86.51755888 -62.07409391 73.59295224 -62.0625 60.64453125 C-62.06000244 59.68626434 -62.05750488 58.72799744 -62.05493164 57.74069214 C-62.03241157 47.25996251 -62.21426795 36.86123243 -62.95605469 26.40576172 C-63.24423292 22.18948314 -63.37086597 17.99450842 -63.375 13.76953125 C-63.39336914 12.71185547 -63.39336914 12.71185547 -63.41210938 11.6328125 C-63.42254218 7.95350909 -63.3487513 5.08319975 -61.1875 2.01953125 C-58.07262623 0.46209437 -54.79174191 0.75266894 -51.375 0.70703125 C-50.66279297 0.67802734 -49.95058594 0.64902344 -49.21679688 0.61914062 C-45.71260698 0.57699958 -43.44510213 0.87130209 -40.390625 2.62890625 C-30.7633629 13.0755098 -27.64298982 30.60652962 -23.76171875 43.90234375 C-23.27950275 45.54582459 -22.79642639 47.18905323 -22.3125 48.83203125 C-21.9553894 50.04850342 -21.9553894 50.04850342 -21.59106445 51.28955078 C-19.29345822 58.96224953 -16.56109696 66.46118876 -13.72705078 73.95043945 C-13.39688965 74.83046631 -13.06672852 75.71049316 -12.7265625 76.6171875 C-12.42959473 77.39586182 -12.13262695 78.17453613 -11.82666016 78.97680664 C-11.1875 81.01953125 -11.1875 81.01953125 -11.1875 84.01953125 C-10.5275 84.01953125 -9.8675 84.01953125 -9.1875 84.01953125 C-9.20321045 82.49706787 -9.20321045 82.49706787 -9.21923828 80.94384766 C-9.4021423 61.48170298 -9.38031042 42.20762004 -7.45166016 22.81860352 C-7.06947524 18.76892694 -6.79289478 14.71165354 -6.51538086 10.65356445 C-6.00606225 6.5619498 -4.92051851 0.0439332 0 0 Z " fill="#131313" transform="translate(965.1875,488.98046875)"/>
<path d="M0 0 C2.20891844 -0.08806319 4.41202591 -0.11915727 6.62255859 -0.13476562 C7.74694336 -0.16570312 7.74694336 -0.16570312 8.89404297 -0.19726562 C14.34796044 -0.23625699 14.34796044 -0.23625699 16.4675293 1.37597656 C18.0075413 3.37107485 18.47957743 4.81705309 19.02099609 7.27148438 C19.21121338 8.11453125 19.40143066 8.95757812 19.59741211 9.82617188 C19.88829712 11.20675781 19.88829712 11.20675781 20.18505859 12.61523438 C20.50204712 14.07316406 20.50204712 14.07316406 20.82543945 15.56054688 C21.50623051 18.74176647 22.16258285 21.92707336 22.81005859 25.11523438 C23.02452637 26.1696875 23.23899414 27.22414063 23.45996094 28.31054688 C26.32356435 42.60899489 28.60097575 56.94211055 30.37866211 71.4140625 C31.22524269 78.20929517 32.28295479 84.91707336 33.58006287 91.64123535 C35.20097395 100.06375239 36.62556372 108.51828528 38.02709961 116.97973633 C38.34175583 118.86783692 38.660796 120.75521194 38.98413086 122.6418457 C42.74132732 144.58061416 42.74132732 144.58061416 41.81005859 154.11523438 C39.76121491 156.16407805 35.85478301 155.48139018 33.06005859 155.55273438 C32.34333984 155.59849609 31.62662109 155.64425781 30.88818359 155.69140625 C26.80081636 155.77781199 25.25150298 155.47881287 21.99755859 152.79882812 C18.85114875 148.31181443 17.80693471 142.99588425 16.56005859 137.74023438 C16.30482422 136.73734375 16.04958984 135.73445312 15.78662109 134.70117188 C14.41370713 129.18061258 13.3774143 123.77528299 12.81005859 118.11523438 C9.80984372 118.25738165 6.8099407 118.40385134 3.81005859 118.55273438 C2.97087891 118.59205078 2.13169922 118.63136719 1.26708984 118.671875 C-3.93007599 118.9337477 -9.03451294 119.40516957 -14.18994141 120.11523438 C-14.28791016 120.91703125 -14.38587891 121.71882812 -14.48681641 122.54492188 C-15.42356928 129.66747391 -16.60149229 136.70794609 -18.06494141 143.74023438 C-18.28875488 144.89434814 -18.28875488 144.89434814 -18.51708984 146.07177734 C-19.23255403 149.3791532 -19.96433514 151.77335822 -21.84228516 154.61914062 C-25.12897914 156.71365609 -28.11516725 156.58882128 -31.87744141 156.42773438 C-32.56644531 156.41806641 -33.25544922 156.40839844 -33.96533203 156.3984375 C-39.02107666 156.28409913 -39.02107666 156.28409913 -40.18994141 155.11523438 C-40.93337781 147.30915218 -39.98640381 139.5554972 -38.95166016 131.82617188 C-38.82000961 130.83224426 -38.68835907 129.83831665 -38.55271912 128.81427002 C-37.03666768 117.62453432 -35.2108831 106.48729182 -33.33813477 95.35253906 C-32.75074804 91.85515183 -32.1721104 88.35639237 -31.59423828 84.85742188 C-29.43347387 71.87028988 -27.07580987 58.96143872 -24.18994141 46.11523438 C-24.03693573 45.4321521 -23.88393005 44.74906982 -23.72628784 44.04528809 C-22.71760985 39.56284418 -21.67727603 35.08823764 -20.62744141 30.61523438 C-20.33675781 29.36226562 -20.04607422 28.10929688 -19.74658203 26.81835938 C-18.91148266 23.24630121 -18.05407548 19.68036369 -17.18994141 16.11523438 C-16.94518066 15.055625 -16.70041992 13.99601562 -16.44824219 12.90429688 C-16.20960449 11.93234375 -15.9709668 10.96039063 -15.72509766 9.95898438 C-15.52408447 9.11529297 -15.32307129 8.27160156 -15.1159668 7.40234375 C-13.95939293 4.5458228 -12.56869417 3.05718438 -10.18994141 1.11523438 C-6.72775094 0.42791462 -3.50727198 0.1845521 0 0 Z " fill="#131313" transform="translate(268.18994140625,490.884765625)"/>
<path d="M0 0 C7.88282563 5.28051731 14.24041205 12.56524592 18.02734375 21.33984375 C18.64497799 28.59704604 17.81560398 36.97332881 15.0546875 43.71484375 C11.61108532 46.47503355 7.66121462 45.79326227 3.40234375 45.65234375 C2.51804687 45.64267578 1.63375 45.63300781 0.72265625 45.62304688 C-5.80458077 45.50791923 -5.80458077 45.50791923 -6.97265625 44.33984375 C-7.08090008 43.00701011 -7.12837133 41.66910252 -7.1484375 40.33203125 C-7.18420898 39.09839844 -7.18420898 39.09839844 -7.22070312 37.83984375 C-7.26309057 36.11351877 -7.29465116 34.38688799 -7.31445312 32.66015625 C-7.51128513 26.76435093 -8.5491749 23.18281736 -11.97265625 18.33984375 C-15.20264786 16.72484795 -18.48019306 16.76224407 -21.97265625 17.33984375 C-27.89248551 21.54950012 -29.69995827 28.14590758 -30.921875 35.015625 C-33.18397458 50.88208098 -33.32385731 66.77785994 -33.41015625 82.77734375 C-33.42219086 83.90484039 -33.43422546 85.03233704 -33.44662476 86.19400024 C-33.47653652 89.47087165 -33.47713206 92.74646317 -33.46875 96.0234375 C-33.47984802 96.99983185 -33.49094604 97.9762262 -33.50238037 98.98220825 C-33.43439625 105.87356146 -32.29213913 112.21944955 -28.97265625 118.33984375 C-26.30076137 120.81740898 -25.23728364 121.3061639 -21.53515625 121.77734375 C-17.11099274 121.23402542 -15.85356146 120.76578508 -12.97265625 117.33984375 C-7.19805152 106.59266272 -7.68137904 93.21527193 -6.97265625 81.33984375 C-7.73191406 81.14648438 -8.49117187 80.953125 -9.2734375 80.75390625 C-10.26730469 80.49351562 -11.26117187 80.233125 -12.28515625 79.96484375 C-13.27128906 79.70960938 -14.25742188 79.454375 -15.2734375 79.19140625 C-17.97265625 78.33984375 -17.97265625 78.33984375 -20.97265625 76.33984375 C-22.04091224 71.29181054 -21.12402858 65.65254117 -19.1484375 60.93359375 C-17.29123342 58.41618756 -15.1986562 58.06609923 -12.203125 57.59375 C-11.46707031 57.50996094 -10.73101563 57.42617188 -9.97265625 57.33984375 C-9.08449219 57.1696875 -8.19632813 56.99953125 -7.28125 56.82421875 C-3.12071143 56.21511983 0.95262214 56.07872697 5.15234375 56.02734375 C5.95027344 55.99833984 6.74820312 55.96933594 7.5703125 55.93945312 C8.34246094 55.93107422 9.11460938 55.92269531 9.91015625 55.9140625 C10.60512207 55.89947998 11.30008789 55.88489746 12.01611328 55.86987305 C14.96658881 56.55932017 16.11183838 58.03444672 18.02734375 60.33984375 C18.54200745 62.78343201 18.54200745 62.78343201 18.56079102 65.54467773 C18.57662735 66.58353622 18.59246368 67.62239471 18.60877991 68.69273376 C18.60382004 69.812491 18.59886017 70.93224823 18.59375 72.0859375 C18.59994858 73.24803238 18.60614716 74.41012726 18.61253357 75.60743713 C18.61964079 78.07120934 18.61644213 80.53502948 18.60375977 82.9987793 C18.59000878 86.73253464 18.62381793 90.46372645 18.66210938 94.19726562 C18.71576872 110.31063089 18.32830801 123.11456258 6.4921875 135.24609375 C-4.22203631 144.34724108 -17.22306179 145.29756504 -30.6796875 144.57373047 C-37.52084081 143.87592118 -42.11702881 140.5214326 -46.78515625 135.71484375 C-57.96502894 121.66766253 -59.18037931 103.4786284 -59.16015625 86.27734375 C-59.16021667 85.49560791 -59.1602771 84.71387207 -59.16033936 83.90844727 C-59.14668392 71.36704371 -58.76380626 58.86292114 -58.09765625 46.33984375 C-58.05845062 45.56937714 -58.019245 44.79891052 -57.97885132 44.00509644 C-56.30382773 11.8602272 -56.30382773 11.8602272 -45.22265625 1.33984375 C-31.89453469 -8.92607286 -14.34346511 -8.01047657 0 0 Z " fill="#141414" transform="translate(1065.97265625,499.66015625)"/>
<path d="M0 0 C1.84658203 0.00773437 1.84658203 0.00773437 3.73046875 0.015625 C4.95378906 0.01046875 6.17710937 0.0053125 7.4375 0 C11.88965007 0.3397825 14.74320002 1.09085627 17.91796875 4.265625 C18.15097046 6.18522644 18.15097046 6.18522644 18.12646484 8.64135742 C18.12200348 9.6109993 18.11754211 10.58064117 18.11294556 11.57966614 C18.09758759 12.68646225 18.08222961 13.79325836 18.06640625 14.93359375 C18.05315063 16.80553085 18.03990926 18.67746807 18.0269146 20.54940701 C18.00981735 22.75350239 17.98778212 24.9575142 17.96520996 27.16156006 C17.90813161 32.96780096 17.87888343 38.77413398 17.84863281 44.58056641 C17.79147076 55.20197465 17.71653018 65.82315668 17.63040543 76.44436836 C17.58008557 82.67390857 17.53360651 88.90342494 17.49609375 95.13305664 C17.45924172 101.24082637 17.41295068 107.34845631 17.35990524 113.45610619 C17.3414468 115.76410709 17.32630769 118.07213712 17.31462479 120.38018227 C17.29774899 123.58734275 17.26873212 126.7941795 17.23681641 130.0012207 C17.23465622 130.94194427 17.23249603 131.88266785 17.23027039 132.85189819 C17.07440283 145.10919092 17.07440283 145.10919092 12.91796875 149.265625 C10.2263445 149.49114738 7.67127131 149.5899579 4.98046875 149.578125 C4.25150391 149.59423828 3.52253906 149.61035156 2.77148438 149.62695312 C-2.54829671 149.63182918 -2.54829671 149.63182918 -5.0234375 147.93359375 C-7.17481059 144.54379187 -7.20416476 141.59210721 -7.19555664 137.69262695 C-7.19548111 136.55167068 -7.19540558 135.41071442 -7.19532776 134.23518372 C-7.19016647 133.00386215 -7.18500519 131.77254059 -7.1796875 130.50390625 C-7.17827255 129.24297653 -7.1768576 127.98204681 -7.17539978 126.6829071 C-7.170747 123.33410791 -7.16176467 119.98537689 -7.1506958 116.63659668 C-7.14045812 113.21802357 -7.13589711 109.79944341 -7.13085938 106.38085938 C-7.11982224 99.67575996 -7.10255345 92.97070183 -7.08203125 86.265625 C-15.00203125 86.265625 -22.92203125 86.265625 -31.08203125 86.265625 C-31.05882812 89.84277344 -31.035625 93.41992188 -31.01171875 97.10546875 C-30.99609728 100.59057257 -30.98396673 104.0756724 -30.97216797 107.56079102 C-30.96214371 109.97291831 -30.9485208 112.38503355 -30.93115234 114.79711914 C-30.90674663 118.2749327 -30.89551207 121.75258483 -30.88671875 125.23046875 C-30.87639618 126.29957993 -30.86607361 127.3686911 -30.85543823 128.47019958 C-30.85322966 143.38845266 -30.85322966 143.38845266 -34.4135437 147.98448181 C-37.35190178 150.2406913 -40.96657271 149.7359399 -44.51953125 149.703125 C-45.28330078 149.72310547 -46.04707031 149.74308594 -46.83398438 149.76367188 C-50.62554642 149.760372 -52.47709282 149.73103577 -55.5546875 147.36328125 C-59.68203023 141.69478241 -58.27641983 134.15767464 -58.26953125 127.390625 C-58.26992401 126.57985504 -58.27031677 125.76908508 -58.27072144 124.93374634 C-58.26024718 106.61382839 -57.37014126 88.35325329 -56.44871521 70.06100464 C-56.03900091 61.75659513 -55.79817396 53.45192382 -55.58203125 45.140625 C-55.30499608 35.22780279 -54.86080005 25.34452161 -54.14453125 15.453125 C-54.06976563 14.3604834 -53.995 13.2678418 -53.91796875 12.14208984 C-53.83933594 11.14516113 -53.76070313 10.14823242 -53.6796875 9.12109375 C-53.61273682 8.25121826 -53.54578613 7.38134277 -53.47680664 6.48510742 C-53.08203125 4.265625 -53.08203125 4.265625 -51.08203125 1.265625 C-49.06665039 0.89331055 -49.06665039 0.89331055 -46.6171875 0.90234375 C-45.73482422 0.90298828 -44.85246094 0.90363281 -43.94335938 0.90429688 C-42.55793945 0.9284668 -42.55793945 0.9284668 -41.14453125 0.953125 C-40.22478516 0.94990234 -39.30503906 0.94667969 -38.35742188 0.94335938 C-31.48269224 0.99851767 -31.48269224 0.99851767 -28.08203125 3.265625 C-27.7097168 5.20385742 -27.7097168 5.20385742 -27.71875 7.62109375 C-27.7180249 8.53866455 -27.7172998 9.45623535 -27.71655273 10.40161133 C-27.73403564 11.40861084 -27.75151855 12.41561035 -27.76953125 13.453125 C-27.77863525 14.49944092 -27.78773926 15.54575684 -27.79711914 16.6237793 C-28.06208016 34.20208723 -29.49121664 51.7666643 -31.08203125 69.265625 C-22.83203125 69.265625 -14.58203125 69.265625 -6.08203125 69.265625 C-6.06221191 67.24646973 -6.04239258 65.22731445 -6.02197266 63.14697266 C-5.95514846 56.48523603 -5.87750806 49.82365736 -5.79450417 43.16210365 C-5.74449918 39.12210162 -5.69816977 35.08212626 -5.66015625 31.04199219 C-5.62335617 27.14504962 -5.57701112 23.24832809 -5.52396774 19.35157394 C-5.5053956 17.86282594 -5.49029811 16.37403051 -5.47868729 14.88521194 C-5.46187256 12.80426514 -5.43285068 10.72382767 -5.40087891 8.64306641 C-5.38755524 7.45725983 -5.37423157 6.27145325 -5.36050415 5.04971313 C-4.9553187 0.99879116 -4.02116547 0.34656432 0 0 Z " fill="#141414" transform="translate(520.08203125,492.734375)"/>
<path d="M0 0 C0.9583374 0.00523682 1.9166748 0.01047363 2.90405273 0.01586914 C4.45576172 0.02070313 4.45576172 0.02070313 6.03881836 0.02563477 C7.12743164 0.03401367 8.21604492 0.04239258 9.33764648 0.05102539 C10.97636719 0.05779297 10.97636719 0.05779297 12.64819336 0.06469727 C15.35723144 0.07652713 18.06616248 0.09300996 20.77514648 0.11352539 C20.80264719 2.86359615 20.82222099 5.61338006 20.83764648 8.36352539 C20.84602539 9.12149414 20.8544043 9.87946289 20.86303711 10.66040039 C20.8807122 14.9024232 20.70618946 19.0468376 20.27075195 23.26708984 C19.61677907 30.90493705 19.67786641 38.5122825 19.73054695 46.17100334 C19.74820347 48.82613048 19.75831935 51.48119532 19.76646423 54.1363678 C19.79068597 61.6769091 19.82635531 69.21736567 19.87109375 76.7578125 C19.89808314 81.39468909 19.91498815 86.03151818 19.92596245 90.66845894 C19.93210916 92.41890792 19.94203301 94.1693484 19.95604134 95.91975212 C20.08944439 112.73156973 19.6908132 130.82556828 8.43139648 144.46899414 C5.53185078 147.34802419 2.43315509 149.3218477 -1.22485352 151.11352539 C-1.8680957 151.43321289 -2.51133789 151.75290039 -3.17407227 152.08227539 C-11.6276795 155.56033094 -23.06456457 155.63618557 -31.66235352 152.61352539 C-42.36267222 147.40699448 -48.10432588 139.08560015 -52.22485352 128.11352539 C-52.57499512 127.24791992 -52.92513672 126.38231445 -53.28588867 125.49047852 C-57.63065557 113.01020849 -56.90793208 99.91736795 -56.97485352 86.86352539 C-56.99997909 84.25535966 -57.02627979 81.647205 -57.05371094 79.0390625 C-57.10576425 73.70239927 -57.14487791 68.3658859 -57.17358398 63.02905273 C-57.20988488 56.63843168 -57.28196245 50.24895899 -57.36947632 43.8588562 C-57.42967274 39.22569523 -57.4716213 34.59251059 -57.50793457 29.95910645 C-57.5274763 27.77829789 -57.55306694 25.59753478 -57.58483887 23.41687012 C-57.626135 20.40015878 -57.64186842 17.38438836 -57.65063477 14.36743164 C-57.66808243 13.48166946 -57.68553009 12.59590729 -57.70350647 11.68330383 C-57.68998424 7.84867096 -57.68249913 5.77768979 -55.46655273 2.56176758 C-53.00754201 0.97313203 -51.82652918 0.62966514 -48.93188477 0.68774414 C-48.13717773 0.69612305 -47.3424707 0.70450195 -46.52368164 0.71313477 C-45.29294922 0.75664062 -45.29294922 0.75664062 -44.03735352 0.80102539 C-43.20526367 0.81069336 -42.37317383 0.82036133 -41.51586914 0.83032227 C-35.39328946 0.94508945 -35.39328946 0.94508945 -34.22485352 2.11352539 C-34.12376665 3.51806411 -34.09134455 4.92762047 -34.08682251 6.33578491 C-34.08136917 7.24681976 -34.07591583 8.15785461 -34.07029724 9.09649658 C-34.06925491 10.10420105 -34.06821259 11.11190552 -34.06713867 12.15014648 C-34.05951759 13.73320084 -34.05951759 13.73320084 -34.05174255 15.34823608 C-34.04100931 17.65034519 -34.03240082 19.95246493 -34.02562332 22.25458908 C-34.01386148 25.90388221 -33.99441198 29.55305553 -33.97250366 33.20230103 C-33.91082214 43.58201065 -33.8569676 53.96171095 -33.82348633 64.34155273 C-33.80247415 70.68407825 -33.76710817 77.02639035 -33.72272873 83.36879349 C-33.70860937 85.78233949 -33.69985552 88.19592331 -33.69667435 90.60950851 C-33.69173477 94.00088343 -33.66849451 97.39169883 -33.64135742 100.78295898 C-33.64586662 102.26415222 -33.64586662 102.26415222 -33.65046692 103.77526855 C-33.56934944 110.64341183 -33.33549677 119.34878681 -28.77311134 124.8705349 C-25.81112815 127.38609918 -23.2620565 128.99828061 -19.41235352 129.42602539 C-15.21882204 129.01489485 -14.02880788 128.28642112 -11.22485352 125.11352539 C-4.55797824 111.36453693 -4.90899994 96.6586163 -4.84594727 81.75805664 C-4.8297446 79.68543231 -4.81256177 77.61281543 -4.79444885 75.54020691 C-4.74899197 70.11007143 -4.71407049 64.67992549 -4.68225098 59.24969482 C-4.63016638 50.54949081 -4.56493624 41.84939703 -4.49403572 33.14932823 C-4.4713386 30.12274017 -4.45498338 27.09616584 -4.4393158 24.0695343 C-4.425901 22.20504608 -4.4122855 20.34055928 -4.3984375 18.47607422 C-4.39451744 17.22668564 -4.39451744 17.22668564 -4.39051819 15.95205688 C-4.25242138 0.21698408 -4.25242138 0.21698408 0 0 Z " fill="#131313" transform="translate(714.224853515625,490.886474609375)"/>
<path d="M0 0 C0.84820312 0.35191406 1.69640625 0.70382812 2.5703125 1.06640625 C13.18342437 5.86606729 17.52246256 13.48637226 22 24 C24.69251051 31.22036526 26.50606216 39.31552538 25 47 C22.38074322 49.64193433 21.2176078 49.97709392 17.4375 50.375 C12.68811863 50.20473916 4.47065775 49.47065775 1 46 C0.81011652 44.63458544 0.67709391 43.2611315 0.5703125 41.88671875 C0.49683594 41.05076172 0.42335937 40.21480469 0.34765625 39.35351562 C0.2002437 37.58844436 0.05952164 35.82280045 -0.07421875 34.05664062 C-0.47999694 27.86110028 -0.47999694 27.86110028 -4 23 C-6.99741531 21.8717594 -9.82039013 21.68651734 -13 22 C-19.47628141 26.36445051 -20.7631847 33.46240287 -22.22412109 40.68823242 C-24.76369388 53.7495553 -25.20831438 66.72896676 -25.1875 80 C-25.18656342 80.7694696 -25.18562683 81.53893921 -25.18466187 82.33172607 C-26.25200433 104.91696667 -26.25200433 104.91696667 -19.42578125 125.6171875 C-17.90563982 127.25621463 -17.90563982 127.25621463 -14.9375 128.3125 C-12.00494683 128.2146881 -12.00494683 128.2146881 -9.875 126.6875 C-4.63311107 119.17412587 -3.38313301 111.15938515 -2.4921875 102.22265625 C-2 99 -2 99 0 96 C3.69945999 94.76684667 7.14767558 94.81592733 11 94.8125 C12.08667969 94.79413086 12.08667969 94.79413086 13.1953125 94.77539062 C17.00700298 94.76484167 18.7536304 94.8357536 22 97 C22.36843361 99.95053918 22.52285208 102.60792827 22.5 105.5625 C22.49427979 106.4086084 22.48855957 107.2547168 22.48266602 108.12646484 C22.1684796 119.47737491 19.71374731 131.52969589 11.9375 140.2109375 C2.91362785 148.54346461 -7.65051038 152.88333987 -19.98828125 152.4453125 C-24.62139048 151.76026133 -27.50211616 150.02686637 -31 147 C-31.92232422 146.27296875 -31.92232422 146.27296875 -32.86328125 145.53125 C-42.82652722 136.82674388 -46.13214355 120.59237515 -47.28125 107.89135742 C-47.3534375 106.80701416 -47.425625 105.7226709 -47.5 104.60546875 C-47.5825 103.40212891 -47.665 102.19878906 -47.75 100.95898438 C-47.8325 99.71439453 -47.915 98.46980469 -48 97.1875 C-48.57844219 87.86278116 -48.57844219 87.86278116 -49.546875 78.57421875 C-50.32392407 71.95477021 -50.24256342 65.28132293 -50.25 58.625 C-50.25133942 57.91745575 -50.25267883 57.2099115 -50.25405884 56.48092651 C-50.2385469 18.64088151 -50.2385469 18.64088151 -39 7 C-27.27979764 -2.89341075 -14.39644097 -6.20192699 0 0 Z " fill="#131313" transform="translate(180,492)"/>
<path d="M0 0 C8.06277457 4.62817876 13.64489262 11.76910446 16.5234375 20.609375 C17.65343226 25.03170016 17.99200932 28.93637062 17.5859375 33.484375 C14.84796857 36.22234393 12.70560972 36.13377308 8.8984375 36.671875 C7.69832031 36.85105469 6.49820313 37.03023437 5.26171875 37.21484375 C1.33053602 37.50310263 -1.62376004 37.61965652 -5.4140625 36.484375 C-7.04543427 34.08186517 -8.05199752 32.24512465 -9.1015625 29.609375 C-11.52977709 23.56383459 -11.52977709 23.56383459 -16.4140625 19.484375 C-21.03450656 18.94971928 -21.03450656 18.94971928 -25.2265625 20.609375 C-29.58719677 27.494587 -29.14741503 35.67824476 -28.4140625 43.484375 C-25.71899462 54.61342 -14.53307452 63.03211424 -6.1640625 70.171875 C5.43854634 80.16571875 15.68572307 93.7744502 18 109.25390625 C18.49257354 116.50568333 16.89558475 122.55608457 14.4609375 129.296875 C14.17814941 130.08497559 13.89536133 130.87307617 13.60400391 131.68505859 C9.78363656 141.51862203 3.43764114 149.29253665 -5.8515625 154.359375 C-15.28013386 157.35025644 -25.28638926 156.76919951 -34.0390625 152.296875 C-45.72083828 145.92878108 -52.92176424 137.11698637 -56.76171875 124.328125 C-57.64298364 120.4864433 -57.84964085 117.40458013 -57.4140625 113.484375 C-55.4140625 111.484375 -55.4140625 111.484375 -53.35107422 111.25732422 C-52.52365723 111.26779785 -51.69624023 111.27827148 -50.84375 111.2890625 C-49.94785156 111.29550781 -49.05195312 111.30195312 -48.12890625 111.30859375 C-46.72318359 111.33373047 -46.72318359 111.33373047 -45.2890625 111.359375 C-43.87173828 111.37291016 -43.87173828 111.37291016 -42.42578125 111.38671875 C-40.08828958 111.41032978 -37.75130127 111.44325984 -35.4140625 111.484375 C-34.63482422 113.16466797 -34.63482422 113.16466797 -33.83984375 114.87890625 C-33.13617286 116.35192398 -32.43170365 117.82456053 -31.7265625 119.296875 C-31.38689453 120.03486328 -31.04722656 120.77285156 -30.69726562 121.53320312 C-28.60613142 125.85227471 -27.06158259 128.59790106 -22.4140625 130.484375 C-19.32368483 131.11938411 -16.51101766 131.09140069 -13.4140625 130.484375 C-9.40001576 127.40978601 -6.86578294 124.12520221 -6.0078125 119.109375 C-5.6443182 108.93153459 -9.74093965 101.23402689 -16.3515625 93.671875 C-19.82107652 90.02006448 -23.41583451 86.49460972 -26.99414062 82.94995117 C-41.14358021 68.92074697 -55.02329314 53.96350507 -55.6640625 33.109375 C-55.52211022 22.7326631 -51.48161885 15.70725875 -44.375 8.3828125 C-31.62851952 -3.64301891 -16.12599085 -7.31767652 0 0 Z " fill="#141414" transform="translate(814.4140625,491.515625)"/>
<path d="M0 0 C3.58552881 1.63687185 4.79315055 2.68972583 7 6 C7.24609566 8.35254955 7.24609566 8.35254955 7.24050903 11.18217468 C7.24325836 12.25489624 7.24600769 13.3276178 7.24884033 14.43284607 C7.24164978 15.60960403 7.23445923 16.786362 7.22705078 17.9987793 C7.22734283 19.23792084 7.22763489 20.47706238 7.22793579 21.75375366 C7.22678027 25.15232301 7.21674213 28.5506501 7.20278788 31.94917655 C7.19029484 35.50060041 7.18911115 39.05202741 7.18673706 42.60346985 C7.18051809 49.32889331 7.16410165 56.05425184 7.14403808 62.77964669 C7.12169205 70.43615153 7.11068892 78.09265946 7.10064721 85.74918878 C7.07973577 101.49949681 7.04455171 117.24974003 7 133 C7.8470752 132.98428955 8.69415039 132.9685791 9.56689453 132.95239258 C12.73142204 132.9010443 15.89573608 132.86354328 19.06054688 132.83520508 C20.42617816 132.82018572 21.79176176 132.79976392 23.15722656 132.77368164 C25.12803905 132.73699863 27.09921408 132.72181449 29.0703125 132.70703125 C30.25383301 132.6913208 31.43735352 132.67561035 32.65673828 132.65942383 C36.4048517 133.04124201 38.79896858 134.04401228 42 136 C43.53597454 139.07194908 43.2265038 141.60244293 43 145 C40.69767442 150.65116279 40.69767442 150.65116279 38 152 C30.39762924 153.11311971 22.86110573 153.18339866 15.1875 153.1875 C13.99318359 153.19974609 12.79886719 153.21199219 11.56835938 153.22460938 C-9.50955826 153.25903167 -9.50955826 153.25903167 -15 148 C-15.42578125 144.90234375 -15.42578125 144.90234375 -15.3125 140.9375 C-15.29213684 140.21277496 -15.27177368 139.48804993 -15.25079346 138.74136353 C-15.12676514 134.54679922 -14.97598469 130.35663498 -14.75952148 126.16577148 C-14.06595144 112.05388731 -13.91378562 97.96251232 -13.87001991 83.8357296 C-13.85933463 80.49519221 -13.84533707 77.15468397 -13.83036804 73.81416321 C-13.76851986 59.91983055 -13.76851986 59.91983055 -13.74951172 46.02539062 C-13.75029635 40.29586287 -13.72708958 34.56687642 -13.6876297 28.83749008 C-13.67717471 26.66935532 -13.67564194 24.50115814 -13.68328094 22.33301163 C-13.69285154 19.32572758 -13.67183593 16.32012029 -13.64355469 13.31298828 C-13.65375137 12.42379196 -13.66394806 11.53459564 -13.67445374 10.61845398 C-13.57267722 4.60586487 -13.57267722 4.60586487 -10.58868408 1.44894409 C-6.87723395 -0.62843714 -4.13711207 -0.70347655 0 0 Z " fill="#141414" transform="translate(348,490)"/>
<path d="M0 0 C2.1171875 -0.140625 2.1171875 -0.140625 5.8046875 0.234375 C9.26524538 4.30508167 9.27726673 8.54640446 9.32885742 13.65673828 C9.34880264 14.49547989 9.36874786 15.3342215 9.38929749 16.19837952 C9.45190223 18.9837196 9.49371286 21.76895829 9.53515625 24.5546875 C9.57457043 26.52963527 9.61514588 28.50456018 9.65681458 30.47946167 C9.74181988 34.64732911 9.81738756 38.81522111 9.88549805 42.98339844 C9.97055634 48.18565102 10.07099449 53.38743523 10.17774773 58.58928299 C10.42745503 70.78296581 10.61264917 82.97674621 10.7642746 95.17201233 C10.80528654 98.27976825 10.85313782 101.38735989 10.90240479 104.49499512 C10.98071491 109.53774429 11.03738829 114.58031133 11.07796669 119.62350082 C11.09613654 121.50843974 11.12108456 123.3933269 11.15318871 125.27807999 C11.19582201 127.87166256 11.21308782 130.46422224 11.22387695 133.05810547 C11.24193453 133.81757351 11.2599921 134.57704155 11.27859688 135.35952377 C11.26681277 138.99926875 10.90948266 141.06632671 8.96598816 144.18289185 C4.99897013 147.94834235 0.73068613 147.50216439 -4.45703125 147.4609375 C-7.93286361 147.1733508 -10.32479227 146.19841516 -13.1953125 144.234375 C-14.50141652 141.62216697 -14.32240233 139.71056802 -14.32470703 136.78417969 C-14.3278038 135.62635483 -14.33090057 134.46852997 -14.33409119 133.27561951 C-14.33212234 131.99872757 -14.3301535 130.72183563 -14.328125 129.40625 C-14.32926971 128.05237294 -14.33074766 126.69849612 -14.33253479 125.34461975 C-14.33557584 121.66010993 -14.33126286 117.97564524 -14.32448959 114.29114151 C-14.32032332 111.9903492 -14.31735551 109.68955783 -14.31460571 107.38876343 C-14.29926024 96.00384397 -14.25468229 84.61914428 -14.1953125 73.234375 C-14.19105507 72.40098854 -14.18679764 71.56760208 -14.18241119 70.70896149 C-14.12686428 60.04533789 -14.04642597 49.38226168 -13.93084717 38.71911621 C-13.89737612 35.6025171 -13.87060456 32.48596905 -13.84942627 29.3692627 C-13.82391622 25.69914899 -13.7838653 22.02948453 -13.73225212 18.35964775 C-13.70761335 16.36356483 -13.69745011 14.36731987 -13.68763733 12.37110901 C-13.66785324 11.19008102 -13.64806915 10.00905304 -13.62768555 8.79223633 C-13.61658249 7.7612532 -13.60547943 6.73027008 -13.59403992 5.66804504 C-13.46245987 4.86493393 -13.33087982 4.06182281 -13.1953125 3.234375 C-8.98091332 0.42477554 -4.87687244 0.52066254 0 0 Z " fill="#131313" transform="translate(868.1953125,493.765625)"/>
<path d="M0 0 C4.01990621 1.55995845 7.61493659 3.41467344 11.33984375 5.59765625 C11.94325089 5.95081406 12.54665802 6.30397186 13.16835022 6.66783142 C14.44598654 7.41676157 15.72261483 8.16741369 16.99829102 8.91967773 C18.89780463 10.03910657 20.80112507 11.15181481 22.70507812 12.26367188 C23.95857242 12.99959291 25.21183419 13.73591018 26.46484375 14.47265625 C28.12954712 15.45117554 28.12954712 15.45117554 29.82788086 16.44946289 C30.43331726 16.83329636 31.03875366 17.21712982 31.66253662 17.6125946 C34.15639899 19.13694147 34.15639899 19.13694147 37.5401001 20.71809387 C47.19181886 25.68249015 47.19181886 25.68249015 49.2219696 31.5040741 C49.62254208 35.80372729 49.58087009 39.88853719 49.3671875 44.19140625 C49.34103204 45.74786926 49.3211241 47.3044486 49.30715942 48.86106873 C49.2540241 52.93313207 49.11686295 56.99805615 48.96130371 61.06732178 C48.81734338 65.22944518 48.7539939 69.39273844 48.68359375 73.55664062 C48.53402463 81.70768249 48.29554961 89.85295036 48 98 C46.10818995 96.90567772 44.21755078 95.80933115 42.32739258 94.7121582 C40.74792595 93.79669975 40.74792595 93.79669975 39.1365509 92.86274719 C34.54136815 90.13374198 30.11250594 87.18199358 25.6875 84.1875 C24.00396582 83.05590095 22.32037044 81.92439296 20.63671875 80.79296875 C19.76974365 80.16551758 18.90276855 79.53806641 18.00952148 78.89160156 C15.56282103 77.35375496 13.68780418 76.47437058 11.02368164 75.52246094 C6.28132657 73.5762969 2.62091641 71.54305227 0 67 C-2.42887379 56.71997035 -1.47986461 45.72661139 -1.02996826 35.25469971 C-0.875537 31.2803628 -0.80781271 27.30460742 -0.73242188 23.328125 C-0.57231253 15.54817985 -0.31693212 7.77530542 0 0 Z " fill="#FBFBFB" transform="translate(694,193)"/>
<path d="M0 0 C3.26384704 0.83332265 4.36235916 1.77800083 6.12142944 4.61495972 C7.9960203 9.51934814 7.43517279 14.98911376 7.36328125 20.16015625 C7.35999313 21.4780162 7.35670502 22.79587616 7.35331726 24.15367126 C7.34373765 27.66232715 7.30936381 31.17033644 7.27044678 34.67877197 C7.24358941 37.48147862 7.2347246 40.28409789 7.22673321 43.08691216 C7.19013329 55.65872759 7.06224854 68.23076691 6.5390625 80.79296875 C6.50891556 81.61104507 6.47876862 82.4291214 6.44770813 83.27198792 C6.12808951 89.76130969 4.97765936 95.92207188 1.9375 101.75 C-1.07574195 103.25662097 -3.74536377 102.92770373 -7.0625 102.75 C-11.59414215 98.21835785 -11.44728956 91.91762609 -11.66796875 85.875 C-11.70488327 85.00713867 -11.74179779 84.13927734 -11.77983093 83.24511719 C-12.16559228 73.44403005 -12.31949928 63.64010365 -12.35766602 53.83203125 C-12.3692224 51.77727391 -12.38973138 49.72254742 -12.41918945 47.66796875 C-12.57324812 36.83050127 -12.37666717 26.30197276 -10.35546875 15.625 C-10.20813797 14.81385742 -10.06080719 14.00271484 -9.90901184 13.16699219 C-8.62684955 7.2005375 -6.45615171 1.58109838 0 0 Z " fill="#F9F9F9" transform="translate(599.0625,515.25)"/>
<path d="M0 0 C2.09872526 3.14808789 2.45770042 4.77928746 3 8.453125 C3.1640332 9.54069092 3.32806641 10.62825684 3.49707031 11.7487793 C3.66303711 12.90418213 3.82900391 14.05958496 4 15.25 C4.17370117 16.42409424 4.34740234 17.59818848 4.52636719 18.80786133 C5.02576775 22.20411308 5.51416833 25.6017847 6 29 C6.12439453 29.85062012 6.24878906 30.70124023 6.37695312 31.57763672 C7.33276639 38.11522773 8.09989279 44.38210248 8 51 C5.41747107 51.50449402 2.83411297 52.00374301 0.25 52.5 C-0.47960937 52.64308594 -1.20921875 52.78617188 -1.9609375 52.93359375 C-5.39343532 53.58888879 -8.49169491 54 -12 54 C-11.39016834 47.44430969 -10.26853178 41.213937 -8.75 34.8125 C-8.30179269 32.8880885 -7.85388552 30.96360708 -7.40625 29.0390625 C-7.17550781 28.05325195 -6.94476563 27.06744141 -6.70703125 26.05175781 C-5.98646394 22.94157432 -5.28692774 19.82733295 -4.59375 16.7109375 C-4.36848633 15.70184326 -4.14322266 14.69274902 -3.91113281 13.65307617 C-3.47586313 11.70063124 -3.04286038 9.74767933 -2.61230469 7.79418945 C-2.41540039 6.91722412 -2.21849609 6.04025879 -2.015625 5.13671875 C-1.84321289 4.36030029 -1.67080078 3.58388184 -1.49316406 2.78393555 C-1 1 -1 1 0 0 Z " fill="#F2F2F2" transform="translate(270,536)"/>
</svg>
